<svg id="visual" viewBox="0 0 900 600" width="900" height="600" xmlns="http://www.w3.org/2000/svg" xmlns:xlink="http://www.w3.org/1999/xlink" version="1.1"><rect width="900" height="600" fill="#001122"></rect><g><g transform="translate(82 433)"><path d="M0 -126.6L109.6 -63.3L109.6 63.3L0 126.6L-109.6 63.3L-109.6 -63.3Z" fill="none" stroke="#F7CACA" stroke-width="10"></path></g><g transform="translate(824 225)"><path d="M0 -91L78.8 -45.5L78.8 45.5L0 91L-78.8 45.5L-78.8 -45.5Z" fill="none" stroke="#F7CACA" stroke-width="10"></path></g><g transform="translate(276 57)"><path d="M0 -66L57.2 -33L57.2 33L0 66L-57.2 33L-57.2 -33Z" stroke="#F7CACA" fill="none" stroke-width="10"></path></g><g transform="translate(367 414)"><path d="M0 -55L47.6 -27.5L47.6 27.5L0 55L-47.6 27.5L-47.6 -27.5Z" stroke="#F7CACA" fill="none" stroke-width="10"></path></g><g transform="translate(818 501)"><path d="M0 -92L79.7 -46L79.7 46L0 92L-79.7 46L-79.7 -46Z" stroke="#F7CACA" fill="none" stroke-width="10"></path></g><g transform="translate(548 166)"><path d="M0 -48L41.6 -24L41.6 24L0 48L-41.6 24L-41.6 -24Z" stroke="#F7CACA" fill="none" stroke-width="10"></path></g></g></svg>